<?xml version="1.0" encoding="utf-8"?>
<!-- Generator: Adobe Illustrator 25.0.0, SVG Export Plug-In . SVG Version: 6.00 Build 0)  -->
<svg version="1.1" id="Layer_1" xmlns="http://www.w3.org/2000/svg" xmlns:xlink="http://www.w3.org/1999/xlink" x="0px" y="0px"
	 viewBox="0 0 311.7 267.4" style="enable-background:new 0 0 311.7 267.4;" xml:space="preserve">
<style type="text/css">
	.st0{fill:#231F20;}
	.st1{fill:#007BFF;}
	.st2{fill:#FFFFFF;}
	.st3{fill:#D1D3D4;}
	.st4{fill:none;}
	.st5{fill:#00B7EB;}
</style>
<g id="_53_astronaut">
	<path class="st0" d="M118.6,238.5c-0.1,0.1-0.1,0.2-0.1,0.3c-1.3,3.1-1.3,7-1,10.2c0.7,7.9,2.6,15.5,11.4,17.4
		c3.6,0.9,7.5,0.7,11-0.6c3.5-1.3,6.3-4.2,7.5-7.7c0.5-1.7,0.7-3.5,0.7-5.3c0.1-4.4,0.1-8.9,0-13.3c0-1.3-0.2-2.6-0.6-3.8
		c-1-2.1-3-3.5-5.2-3.9c-2.2-0.4-4.5-0.3-6.7,0.2c-3.8,0.7-7.6,1.6-11.2,2.9C122,235.6,119.7,236.3,118.6,238.5z"/>
	<path class="st0" d="M133.6,267.4c-1.6,0-3.2-0.2-4.8-0.5c-9.3-2-11.2-10.1-11.8-17.8c-0.4-4.4,0-7.8,1-10.5c0-0.1,0.1-0.2,0.1-0.3
		l0,0c1.1-2.3,3.4-3,5.6-3.8l0.3-0.1c3.7-1.3,7.5-2.2,11.3-2.9c2.3-0.5,4.6-0.6,6.9-0.2c2.4,0.4,4.5,2,5.6,4.2
		c0.5,1.3,0.7,2.6,0.6,4c0.2,4.4,0.2,8.9,0,13.3c0,1.8-0.2,3.7-0.7,5.5c-1.3,3.7-4.1,6.7-7.8,8C138,267,135.8,267.4,133.6,267.4z
		 M119.1,238.7l-0.1,0.3c-1,2.5-1.3,5.7-1,10c0.7,7.7,2.4,15.1,11,16.9c3.5,0.9,7.3,0.7,10.7-0.6c3.4-1.3,6.1-4,7.2-7.4
		c0.4-1.7,0.7-3.5,0.6-5.2c0.1-4.4,0.1-8.9,0-13.3c0-1.2-0.2-2.5-0.6-3.6c-1-1.9-2.8-3.2-4.9-3.6c-2.2-0.3-4.4-0.3-6.5,0.2
		c-3.8,0.7-7.5,1.6-11.2,2.9l-0.3,0.1C122,236.1,120,236.8,119.1,238.7L119.1,238.7z"/>
	<path class="st1" d="M170.8,14l60.7,14.3c5.1,1.2,8.3,6.3,7.1,11.4l-21.9,93.1c-1.2,5.1-6.3,8.3-11.4,7.1l-60.7-14.3
		c-5.1-1.2-8.3-6.3-7.1-11.4L159.4,21C160.6,15.9,165.7,12.8,170.8,14z"/>
	<path class="st2" d="M120,52.1c0,0-5.3,23.4-1.7,32.4s34.3-3.6,34.3-3.6s-21.1,47.2-31,73.2s0,72.4,0,72.4s-8.8,23.2-2.7,29.3
		c6.1,6.1,25.1,8.8,27.7-1.1c2.7-9.9,3-29.4,3-29.4s-2.9-35,6.7-51.8s19.1-33.5,19.1-33.5l4.7,13c0,0-20.8,85.6-14.3,88.7
		s53-15.2,48-29c-5-13.7-16.7-5.3-16.7-5.3s30.1-33.9,29.3-50.7c-0.8-16.8-16-40.8-16-40.8l6.9-24c0,0,39.2,42.6,55.2,20.6
		l-7.2-25.9c0,0-7.6,8.4-16.8-1.1c-9.1-9.5-8.8-30.9-42.3-39.6S120,52.1,120,52.1z"/>
	<path class="st0" d="M134.8,261.7c-6.1,0-12.9-2.2-16.3-5.6c-6.1-6.1,1.7-27.6,2.5-29.7c-0.6-2.9-9.5-47.5,0-72.5
		c9-23.4,27.3-64.7,30.6-72.1c-4.9,1.9-23.5,8.7-30.9,5.6c-1.2-0.5-2.2-1.4-2.8-2.7c-3.6-9,1.5-31.7,1.7-32.7c0-0.2,0.2-0.3,0.4-0.4
		c0.5-0.2,53.1-15,86.4-6.3c24.4,6.4,31,19.3,36.3,29.7c2,4,3.8,7.4,6.3,10c2.8,3,5.8,4.4,8.8,4.4c2.7-0.1,5.3-1.3,7.2-3.2
		c0.1-0.1,0.3-0.2,0.5-0.2c0.2,0,0.3,0.2,0.4,0.4l7.2,25.9c0,0.2,0,0.3-0.1,0.4c-2.6,3.9-6.9,6.3-11.6,6.5
		c-7.7,0.4-17.5-4-29.2-13.2c-5.2-4.1-10-8.5-14.6-13.3l-6.5,22.9c1.4,2.3,15.2,24.9,15.9,40.8c0.6,14.5-21,41.1-27.6,48.9
		c2.5-1.2,5.4-1.5,8.1-0.8c3,1,5.4,3.6,6.9,7.8c1.3,3.5-0.5,7.5-5.2,11.8c-11.9,10.8-38.6,20.1-43.5,17.8c-1.2-0.6-4.4-2,4.4-46
		c4.2-20.6,9.1-41.1,9.5-43.1l-4.3-11.9c-2.2,3.8-10.4,18.2-18.6,32.6c-9.3,16.4-6.6,51.1-6.6,51.4c0,0.4-0.3,19.8-3,29.6
		c-0.8,3.1-3.3,5.3-7.1,6.3C138.3,261.5,136.5,261.7,134.8,261.7z M152.5,80.4c0.1,0,0.3,0.1,0.4,0.2c0.1,0.1,0.2,0.4,0.1,0.6
		c-0.2,0.5-21.3,47.5-31,73.1s-0.1,71.6,0,72.1c0,0.1,0,0.2,0,0.3c-0.1,0.2-8.6,23-2.8,28.8c4.1,4.1,14.1,6.4,20.5,4.7
		c2.4-0.6,5.4-2.1,6.4-5.6c2.6-9.7,2.9-29.1,2.9-29.3c-0.4-6.5-0.5-13.1-0.2-19.6c0.4-9.9,2-23.6,7-32.4
		c9.5-16.8,19.1-33.5,19.1-33.5c0.1-0.2,0.3-0.3,0.5-0.3c0.2,0,0.4,0.2,0.4,0.3l4.7,13c0,0.1,0,0.2,0,0.3c-8,33-19,86-14.6,88.1
		c4.2,2,30.3-6.6,42.4-17.6c4.4-4.1,6.1-7.6,4.9-10.7c-1.4-3.9-3.5-6.3-6.3-7.2c-4.6-1.5-9.7,2-9.7,2.1c-0.2,0.2-0.5,0.2-0.7,0
		c-0.2-0.2-0.2-0.5,0-0.7c0.3-0.3,29.9-34,29.2-50.3c-0.7-16.4-15.7-40.3-15.9-40.5c-0.1-0.1-0.1-0.3-0.1-0.4l6.9-24
		c0.1-0.2,0.2-0.3,0.4-0.4c0.2,0,0.4,0,0.5,0.2c0.3,0.3,25.8,27.8,43.6,26.7c4.3-0.2,8.3-2.4,10.7-5.9l-7-24.9c-2,1.8-4.6,2.9-7.3,3
		h-0.1c-3.2,0-6.4-1.6-9.4-4.7c-2.6-2.7-4.5-6.4-6.4-10.3C236.4,65.3,230,52.6,206,46.3c-31.7-8.3-81.3,5.1-85.6,6.2
		c-0.6,2.7-5,23.6-1.7,31.8c0.4,1,1.3,1.8,2.3,2.2c8.1,3.4,31.1-6,31.3-6.1C152.4,80.4,152.5,80.4,152.5,80.4z"/>
	<path class="st0" d="M257,106c0.2,2.5,1,5,2.3,7.1c1.3,2.2,3.6,3.7,6.1,4.1c2.6,0.3,5.1-1,6.2-3.3c0.4-0.9,0.6-1.9,0.6-2.9
		c0.5-5.1-0.2-10.3-1.9-15.1c-0.6-1.9-1.5-3.6-2.7-5.1C259.8,82.1,256.4,100.9,257,106z"/>
	<path class="st0" d="M266.1,117.7c-0.3,0-0.5,0-0.8,0c-2.7-0.4-5-2-6.5-4.3c-1.4-2.2-2.2-4.7-2.4-7.3c-0.5-4.1,1.3-15.7,5.8-17.7
		c1.8-0.8,3.7-0.1,5.7,2.2c1.3,1.5,2.2,3.3,2.8,5.2c1.7,4.9,2.4,10.1,1.9,15.2c-0.1,1-0.3,2.1-0.7,3
		C271,116.3,268.7,117.7,266.1,117.7z M263.7,89.1c-0.3,0-0.7,0.1-1,0.2c-3.9,1.7-5.7,12.7-5.2,16.7l0,0c0.2,2.4,1,4.8,2.2,6.9
		c1.3,2,3.4,3.4,5.7,3.8c2.4,0.3,4.7-0.9,5.7-3c0.3-0.9,0.5-1.8,0.6-2.7c0.4-5-0.2-10.1-1.9-14.9c-0.6-1.8-1.5-3.4-2.6-4.9
		C266,89.8,264.8,89.1,263.7,89.1z"/>
	<path class="st0" d="M133.9,67.8c3.9-0.6,7.1-3.4,9.5-6.6c1.3-1.5,2.1-3.3,2.3-5.3c0-2.6-1.7-4.9-4.1-5.6c-1.7-0.3-3.5-0.2-5.2,0.3
		c-4.9,1-10.2,1.4-14.8,3.6c-4.9,2.3-2,6.6,1,9.6C125.4,66.4,129.9,68.5,133.9,67.8z"/>
	<path class="st0" d="M132.4,68.5c-3.8-0.2-7.4-1.7-10.2-4.3c-1.9-1.9-4.2-4.6-3.8-7.1c0.3-1.5,1.4-2.7,2.9-3.3
		c3.5-1.5,7.2-2.4,10.9-2.9c1.3-0.2,2.7-0.5,4-0.7c1.8-0.5,3.7-0.6,5.5-0.2c2.7,0.8,4.5,3.3,4.5,6.1c-0.2,2.1-1.1,4-2.4,5.6
		c-2,2.7-5.4,6.1-9.8,6.8l0,0C133.4,68.4,132.9,68.5,132.4,68.5z M133.9,67.8L133.9,67.8z M139.9,50.6c-1.1,0-2.3,0.2-3.4,0.5
		c-1.3,0.3-2.7,0.5-4.1,0.7c-3.6,0.6-7.4,1.2-10.7,2.8c-1.1,0.4-2,1.3-2.3,2.5c-0.4,2.2,2,4.9,3.5,6.3c2.5,2.4,6.9,4.6,10.9,3.9l0,0
		c4.1-0.7,7.3-3.8,9.2-6.4c1.2-1.4,2-3.2,2.2-5c0-2.3-1.5-4.4-3.8-5.1C140.9,50.7,140.4,50.6,139.9,50.6L139.9,50.6z"/>
	<path class="st2" d="M141.7,56.3c0.7-0.5,14.5-4.2,14.5-9.9s-13-2.1-13-2.1s2.5-21.5-0.5-22.5c-3.1-1-5.9,8.2-5.7,17.3
		c0,0,0.2-14.7-3.4-14.1c-3.6,0.6-3,17.4-3,17.4s-1.1-15.6-5.9-13.2s-2.5,14.3-2.5,14.3s-0.8-12.8-3.6-9.1c-2.9,3.6-0.2,18.9,1.3,22
		C121.3,59.3,132.9,62.8,141.7,56.3z"/>
	<path class="st0" d="M130.2,60.5c-1.7,0-3.3-0.2-4.9-0.6c-3-0.7-5.3-2-6-3.4c-1.6-3.2-4.3-18.6-1.3-22.5c0.7-0.9,1.3-0.9,1.7-0.8
		c0.6,0.2,1,0.8,1.4,1.7c0.3-2.7,1.1-5.2,3.2-6.2c0.7-0.4,1.6-0.4,2.3,0c1.6,0.9,2.7,3.9,3.3,6.8c0.2-5,1-10.7,3.4-11.2
		c0.5-0.1,1.1,0.1,1.5,0.4c1.1,1,1.8,3.5,2.1,6.2c0.8-4.5,2.2-8.1,3.8-9.3c0.5-0.5,1.3-0.6,2-0.4c3,1,1.7,16.4,1,22.3
		c2.2-0.5,8.9-1.9,11.6,0.2c0.8,0.6,1.3,1.6,1.3,2.6c0,5.1-9.4,8.4-13.4,9.8c-0.6,0.2-1.2,0.4-1.3,0.5
		C138.6,59.2,134.4,60.5,130.2,60.5z M119.4,34.2c-0.1,0-0.3,0.2-0.6,0.5c-2.7,3.5-0.1,18.5,1.4,21.3c0.5,0.9,2.3,2.1,5.3,2.9
		c5.5,1.3,11.3,0.2,15.9-3l0,0c0.5-0.3,1-0.5,1.6-0.6c3.5-1.2,12.7-4.5,12.7-8.9c0-0.7-0.3-1.4-0.9-1.8c-2.9-2.2-11.4,0.2-11.5,0.2
		c-0.3,0.1-0.5-0.1-0.6-0.4c0-0.1,0-0.1,0-0.2c1.2-10.1,1.4-21.4-0.2-21.9c-0.4-0.1-0.8,0-1.1,0.3c-1.9,1.5-3.9,7.7-4,14.9
		c0,0.8,0,1.3,0,1.6c0,0.3-0.2,0.5-0.5,0.5l0,0c-0.3,0-0.5-0.2-0.5-0.5c0-0.5,0-1,0-1.5c-0.1-3.8-0.5-10.5-2.2-11.9
		c-0.2-0.2-0.4-0.2-0.7-0.2c-2.2,0.4-2.9,10.2-2.6,16.9c0,0.3-0.2,0.5-0.5,0.5s-0.5-0.2-0.5-0.5c-0.2-3-1.3-11.4-3.8-12.8
		c-0.4-0.3-1-0.3-1.4,0c-2.5,1.3-2.9,5.5-2.7,8.9c0.3,1.9,0.5,3.9,0.5,4.9c0,0.3-0.2,0.5-0.4,0.5c-0.3,0-0.5-0.1-0.6-0.4
		c0,0,0,0,0,0c-0.3-1.6-0.5-3.2-0.5-4.8c-0.4-2.4-1-4.3-1.6-4.5L119.4,34.2z"/>
	<path class="st2" d="M261.8,95.8c0.3-0.8-0.2-15.1,5.3-16.7c5.5-1.7,5.8,11.8,5.8,11.8s19.9-8.6,21.7-6c1.8,2.6-6.1,8-14.8,10.5
		c0,0,14-4.5,14.5-0.8s-15.8,8-15.8,8s15.3-3.5,14.3,1.8c-1,5.3-12.9,6.5-12.9,6.5s12.4-3,9.8,0.8s-18,5.7-21.3,5.1
		C264.9,116.1,258.2,106.1,261.8,95.8z"/>
	<path class="st0" d="M269.9,117.4c-0.6,0-1.2,0-1.8-0.1c-1.5-0.3-3.4-2-5-4.7c-1.1-1.9-4.6-8.9-1.8-16.9c0-0.1,0.1-0.8,0.1-1.4
		c0.2-4.2,0.7-14.2,5.5-15.7c1-0.3,2-0.2,2.9,0.4c2.8,2,3.4,8.8,3.5,11.1c5.4-2.3,19.8-8.2,21.6-5.5c0.4,0.6,0.5,1.4,0.2,2
		c-0.7,1.9-3.8,4.4-7.8,6.4c2.7-0.4,5.3-0.6,6.5,0.2c0.5,0.3,0.8,0.8,0.8,1.3c0.3,2.4-5,4.9-9.6,6.5c3-0.2,6.2-0.1,7.5,1.2
		c0.6,0.6,0.9,1.4,0.7,2.2c-0.4,2.2-2.6,3.8-5.1,4.9c0.8,0,1.5,0.3,2,0.8c0.2,0.3,0.4,1-0.3,1.9
		C287.5,115.5,275.3,117.4,269.9,117.4z M268,79.4c-0.3,0-0.5,0-0.8,0.1c-4.2,1.3-4.6,11.1-4.8,14.7c0,0.6,0,1.1-0.2,1.7l0,0
		c-2.7,7.6,0.6,14.2,1.7,16.1c1.6,2.7,3.3,4.1,4.3,4.2c3.2,0.5,18.3-1.3,20.8-4.9c0.2-0.3,0.3-0.6,0.2-0.7c-0.4-0.5-2.3-0.5-4.8-0.2
		c-1.6,0.4-3.2,0.7-4.8,0.9c-0.3,0-0.5-0.2-0.5-0.4c0-0.3,0.1-0.5,0.4-0.6c1-0.2,2.9-0.6,4.8-0.9c3.3-0.9,7.2-2.5,7.7-5.2
		c0.1-0.5,0-1-0.4-1.3c-2-1.9-10.3-0.6-13.3,0.1c-0.3,0.1-0.5-0.1-0.6-0.4c-0.1-0.3,0.1-0.5,0.4-0.6c0,0,0,0,0,0
		c6.6-1.8,15.7-5.2,15.4-7.4c0-0.2-0.2-0.4-0.4-0.6c-1.8-1.2-8.4,0.3-12,1.4l-1.4,0.4c-0.3,0.1-0.6-0.1-0.7-0.4
		c-0.1-0.3,0.1-0.6,0.4-0.7l1.5-0.4c6.9-2.2,12.3-5.9,13.1-8.2c0.2-0.4,0.1-0.8-0.1-1.1c-1-1.4-11.7,2.1-21.1,6.2
		c-0.3,0.1-0.6,0-0.7-0.3c0-0.1,0-0.1,0-0.2c0-0.1-0.2-8.9-3.1-11C268.9,79.5,268.5,79.4,268,79.4z"/>
	<path class="st0" d="M212.3,108.8c0,0-14,3.1-22.2-1.4l-2.9,8.1c0,0,17.4,5.4,26.4,1.3L212.3,108.8z"/>
	<path class="st0" d="M204.8,118.9c-6-0.2-12-1.1-17.7-2.9c-0.1,0-0.2-0.1-0.3-0.3c-0.1-0.1-0.1-0.3,0-0.4l2.9-8.1
		c0-0.1,0.2-0.3,0.3-0.3c0.1-0.1,0.3-0.1,0.4,0c7.9,4.4,21.7,1.4,21.8,1.3c0.1,0,0.3,0,0.4,0.1c0.1,0.1,0.2,0.2,0.2,0.3l1.4,8
		c0,0.2-0.1,0.4-0.3,0.5C211.1,118.5,207.9,119.1,204.8,118.9z M187.9,115.2c2.9,0.8,17.3,4.7,25.2,1.3l-1.2-7.1
		c-2.6,0.5-14,2.5-21.5-1.3L187.9,115.2z"/>
	<path class="st0" d="M177.1,103.7c0,0-24-8.5-29.7-13.3l-5.1,9.1c0,0,25,11.2,32.6,11.6L177.1,103.7z"/>
	<path class="st0" d="M174.8,111.7L174.8,111.7c-7.6-0.4-31.7-11.2-32.8-11.7c-0.1-0.1-0.2-0.2-0.3-0.3c-0.1-0.1-0.1-0.3,0-0.4
		l5.1-9.1c0.1-0.1,0.2-0.2,0.3-0.3c0.1,0,0.3,0,0.4,0.1c5.6,4.6,29.3,13.1,29.6,13.2c0.3,0.1,0.4,0.4,0.3,0.6c0,0,0,0,0,0l-2.3,7.4
		C175.3,111.5,175.1,111.6,174.8,111.7z M143,99.3c3.5,1.6,24.3,10.6,31.5,11.3l2-6.6c-3.3-1.2-22.9-8.4-28.9-12.8L143,99.3z"/>
	<path class="st0" d="M121.5,226.9c-0.2,0-0.4-0.1-0.4-0.3c-0.1-0.2,0-0.5,0.2-0.7c0.1-0.1,10.3-5.7,18.7,0c0.2,0.2,0.3,0.5,0.1,0.7
		c-0.2,0.2-0.5,0.3-0.7,0.1c-7.9-5.4-17.6,0-17.7,0C121.7,226.9,121.6,226.9,121.5,226.9z"/>
	<path class="st0" d="M169.4,221.4c-0.1,0-0.2,0-0.3-0.1c-0.2-0.2-0.2-0.5,0-0.7c7.5-8.3,27-13.5,27.8-13.7c0.3-0.1,0.5,0.1,0.6,0.4
		c0.1,0.3-0.1,0.5-0.4,0.6c0,0,0,0,0,0c-0.2,0-20,5.3-27.3,13.4C169.7,221.4,169.6,221.4,169.4,221.4z"/>
	<path class="st0" d="M165.7,241.7c0,0-3.7-9.1,5.7-15.2c9.4-6.1,35.4-20,40.4-17.5c4.2,2.1,5.1,6.7,3.7,11
		c-1.5,4.1-4.2,7.7-7.7,10.4c-6.7,5.5-15.5,9.6-23.8,12.2C180.2,243.7,168,247.4,165.7,241.7z"/>
	<path class="st0" d="M172.2,245.3c-3.7,0-6.1-1.1-7-3.4l0,0c-0.2-0.4-3.7-9.6,5.9-15.9c9.1-5.9,35.5-20.2,40.9-17.5
		c4.1,2,5.6,6.6,3.9,11.6c-1.6,4.2-4.3,7.9-7.8,10.7c-6.1,5-14.6,9.4-24,12.3C180.3,244.3,176.3,245.1,172.2,245.3z M166.2,241.5
		c1,2.4,4.9,4.5,17.7,0.6c9.2-2.9,17.6-7.2,23.6-12.1c3.4-2.6,6-6.2,7.6-10.3c1.5-4.5,0.2-8.5-3.4-10.4
		c-4.4-2.2-28.7,10.2-39.9,17.5C162.8,232.6,166,241.1,166.2,241.5L166.2,241.5z"/>
	<path class="st2" d="M169.9,43.5c0,0,6.9-7.9,7.3-7s40.7,11.7,41.5,11c0.8-0.6,4,8.5,4,8.5S193.5,69.7,169.9,43.5z"/>
	<path class="st0" d="M204.5,60c-10.3,0-23.3-3.3-35-16.2c-0.2-0.2-0.2-0.5,0-0.7c4.3-4.9,6.8-7.4,7.6-7.2c0.2,0,0.3,0.1,0.4,0.3
		c2.2,1.3,38,10.9,40.8,10.9l0,0c0.1-0.1,0.3-0.1,0.5,0c1,0.3,2.8,5,4.2,8.9c0.1,0.2,0,0.5-0.3,0.6C217,58.9,210.8,60.1,204.5,60z
		 M170.6,43.5c21.5,23.5,47.7,13.8,51.3,12.3c-1.2-3.4-2.7-7.1-3.3-7.7c-0.5,0.1-2.2-0.2-8.4-1.7c-0.3-0.1-29.8-7.5-33.2-9.4
		C176.2,37.3,173.2,40.4,170.6,43.5z M176.7,36.7c0,0.1,0.1,0.2,0.2,0.2C176.8,36.9,176.7,36.8,176.7,36.7z"/>
	<path class="st0" d="M136.7,79.4c-0.3,0-0.5-0.2-0.5-0.5c0-0.1,0.1-0.3,0.1-0.3c4.8-4.7,7.1-9.8,6.8-15.2c-0.1-2.4-0.7-4.7-1.9-6.7
		c-0.1-0.2-0.1-0.6,0.2-0.7c0.2-0.1,0.6-0.1,0.7,0.2c0.1,0.1,6.9,11.5-5.1,23.3C136.9,79.4,136.8,79.4,136.7,79.4z"/>
	<path class="st2" d="M143.2,44.3c0,0-7-1.4-11,6.3"/>
	<path class="st0" d="M132.3,51.1c-0.1,0-0.2,0-0.2,0c-0.2-0.1-0.3-0.4-0.2-0.7c4.1-8,11.4-6.6,11.5-6.6c0.3,0.1,0.5,0.3,0.4,0.6
		c-0.1,0.3-0.3,0.5-0.6,0.4l0,0c-0.3-0.1-6.6-1.2-10.4,6C132.6,51,132.4,51.1,132.3,51.1z"/>
	<path class="st2" d="M272.9,90.8c0,0,4.3,5.2-3.1,12"/>
	<path class="st0" d="M269.7,103.4c-0.1,0-0.3-0.1-0.4-0.2c-0.2-0.2-0.2-0.5,0-0.7c0,0,0,0,0,0c7-6.4,3.1-11.3,3-11.3
		c-0.2-0.2-0.1-0.5,0.1-0.7c0.2-0.2,0.5-0.1,0.7,0.1l0,0c0.1,0,4.5,5.6-3.2,12.7C269.9,103.3,269.8,103.4,269.7,103.4z"/>
	<polygon class="st0" points="193.4,105.5 175.5,100.8 171.3,111.8 189.2,117.5 	"/>
	<path class="st0" d="M189.2,118c-0.1,0-0.1,0-0.2,0l-17.9-5.7c-0.3-0.1-0.4-0.4-0.3-0.6c0,0,0,0,0,0l4.1-11
		c0.1-0.2,0.4-0.4,0.6-0.3l17.9,4.7c0.1,0,0.2,0.1,0.3,0.2c0,0.1,0,0.3,0,0.4l-4.2,12C189.6,117.9,189.4,118,189.2,118z M172,111.5
		l16.9,5.4l3.8-11l-16.9-4.5L172,111.5z"/>
	<path class="st2" d="M168.2,135.3c0,0,6.7,8.4,17.3,4.7"/>
	<path class="st0" d="M180.2,141.4c-4.8-0.1-9.3-2.2-12.4-5.8c-0.2-0.2-0.1-0.5,0.1-0.7c0,0,0,0,0,0c0.2-0.2,0.5-0.1,0.7,0.1
		c0,0,0,0,0,0c4.1,4.9,10.8,6.7,16.8,4.5c0.3-0.1,0.6,0.1,0.6,0.3c0.1,0.3-0.1,0.5-0.3,0.6C183.9,141.1,182.1,141.4,180.2,141.4z"/>
	<path class="st3" d="M136.2,177.8c-3.3,0.1-6.7-0.7-9.6-2.2c-2.4-1.2-4.3-3.1-5.5-5.4c-0.1-0.3,0-0.6,0.3-0.7
		c0.2-0.1,0.5,0,0.6,0.3c0.2,0.5,5.3,11.5,26.1,4.9c0.3-0.1,0.6,0,0.7,0.3c0.1,0.3,0,0.6-0.3,0.7c0,0-0.1,0-0.1,0
		C144.4,177,140.3,177.7,136.2,177.8z"/>
	<path class="st3" d="M216.3,164.8c-0.1,0-0.2,0-0.3-0.1c-15.2-13.8-29.5-2.7-30.1-2.3c-0.2,0.2-0.5,0.1-0.7-0.1
		c-0.2-0.2-0.1-0.5,0.1-0.7c0.2-0.1,15.5-12.1,31.4,2.3c0.2,0.2,0.2,0.5,0,0.7c0,0,0,0,0,0C216.5,164.7,216.4,164.8,216.3,164.8z"/>
	<path class="st2" d="M248.4,85.4c0,0-8.2-2.3-13,8.4"/>
	<path class="st0" d="M235.4,94.3c-0.1,0-0.1,0-0.2,0c-0.3-0.1-0.4-0.4-0.3-0.7c4.9-10.9,13.5-8.7,13.6-8.7c0.3,0.1,0.4,0.4,0.4,0.6
		c-0.1,0.3-0.4,0.4-0.6,0.3c-0.3-0.1-7.9-2-12.4,8.1C235.8,94.2,235.6,94.3,235.4,94.3z"/>
	<path class="st2" d="M143.2,84.2c0,0,13.9-4.4,19.6-7.3"/>
	<path class="st0" d="M143.2,84.7c-0.3,0-0.5-0.2-0.6-0.4s0.2-0.5,0.4-0.6c0.1,0,13.9-4.4,19.5-7.3c0.2-0.1,0.6,0,0.7,0.2
		c0.1,0.2,0,0.5-0.2,0.7c0,0,0,0,0,0c-5.7,2.9-19.1,7.2-19.7,7.3C143.3,84.7,143.2,84.7,143.2,84.7z"/>
	<line class="st4" x1="213.7" y1="102.9" x2="222.6" y2="72.7"/>
	<path class="st0" d="M213.7,103.4h-0.1c-0.3-0.1-0.4-0.4-0.3-0.6l0,0l8.9-30.2c0.1-0.3,0.4-0.4,0.6-0.4c0.3,0.1,0.4,0.4,0.4,0.6
		l-8.9,30.2C214.2,103.2,214,103.4,213.7,103.4z"/>
	<path class="st2" d="M230.6,31.5c-0.1,0.4-0.1,0.8-0.2,1.2c-0.3,2.1-1.1,4-2.3,5.7c-1.2,1.5-3.6,3.5-5.7,3
		c-1.8-0.4-2.2-2.6-2.6-4.1c-1.3-5.6,0-11.4,3.3-16c1.8-2.6,4.6-3.2,6.2,0C230.7,24.2,231,28.2,230.6,31.5z"/>
	<path class="st0" d="M223,42.1c-0.3,0-0.5,0-0.8-0.1c-2-0.4-2.5-2.6-2.9-4.1l-0.1-0.4c-1.3-5.7-0.1-11.7,3.4-16.4
		c1.2-1.6,2.6-2.5,4.1-2.4c0.9,0.1,2.1,0.5,3,2.4c1.4,3.3,1.9,6.9,1.4,10.5l0,0c-0.1,0.4-0.1,0.8-0.2,1.2c-0.3,2.1-1.2,4.2-2.4,5.9
		C227.6,39.9,225.3,42.1,223,42.1z M226.5,19.7c-1.2,0.2-2.3,0.9-3,2c-3.3,4.5-4.5,10.2-3.2,15.6l0.1,0.4c0.3,1.4,0.8,3,2.1,3.4
		c1.9,0.4,4.2-1.6,5.2-2.9c1.2-1.6,1.9-3.5,2.2-5.5c0.1-0.4,0.1-0.8,0.2-1.2l0,0c0.5-3.4,0-6.8-1.3-9.9c-0.4-1-1.2-1.7-2.2-1.9
		L226.5,19.7z M230.6,31.6L230.6,31.6z"/>
	<path class="st2" d="M226,37.9c-6,13.4-21.7,19.3-35.1,13.3c-13.4-6-19.3-21.7-13.3-35.1c6-13.4,21.7-19.3,35.1-13.3
		c8.5,3.8,14.4,11.8,15.5,21C228.7,28.6,228,33.5,226,37.9z"/>
	<path class="st0" d="M201.8,54c-14.9,0-27-12.1-27-27c0-7.5,3.1-14.6,8.5-19.7c10.9-10.2,27.9-9.7,38.1,1.2c2.8,3,4.9,6.6,6.1,10.5
		c0.5,1.5,0.8,3.1,1,4.7c1.8,14.8-8.7,28.3-23.6,30.1C204,53.9,202.9,54,201.8,54z M201.9,1c-6.6,0-13,2.5-17.8,7
		c-4.1,3.9-6.9,9-7.8,14.7c-2.4,14.1,7.2,27.5,21.3,29.9c11.6,1.9,23.1-4.2,28-15l0,0c2-4.3,2.7-9.1,2.1-13.8
		c-0.2-1.5-0.5-3.1-1-4.5C223.3,8.4,213.3,1,201.9,1z"/>
	<path class="st2" d="M204.1,20.4c0,0-4.5,4.6-3.9,5.7s3,0.9,3,0.9"/>
	<path d="M217.6,21.7c0.3-3.4,0.1-7-2.3-9.7c-3.2-3.4-10.6-6.5-15.1-3.8c-0.5,0.3-1,0.7-1.5,1.1c-0.8,0.7-1.4,1.5-2,2.4
		c-2.2,3.1-3.8,6.6-4.8,10.3c-1.1,4.1-2.3,8.6-0.4,12.7c1.3,2.5,3.5,4.3,6.2,5.2c1.2,0.5,2.5,0.5,3.7,0.9c1.6,0.7,3.3,1.3,5,1.6
		c2.2,0.3,3.8,0.2,5.3-1.6c0.8-1.1,1.4-2.3,1.8-3.6C215.2,32.2,217.2,27.2,217.6,21.7z M193.4,27.7c0-2,0.5-4,1.3-5.8l2.2-5.6
		c0.2-0.7,0.6-1.3,1-1.8c1.1-1,2.6-0.2,3.8,0.1c2.2,0.5,4.3,1.2,6.3,2c1.1,0.5,3.2,1.2,3.6,2.4c1,2.6-0.4,5.7-1.1,8.2
		c-0.8,3.1-2.4,5.9-4.6,8.2c-2,1.9-5.4,0.8-7.4-0.4c-2-1.1-3.6-2.9-4.5-5C193.6,29.4,193.4,28.6,193.4,27.7z"/>
	<path class="st2" d="M226,37.9c-6,13.3-21.6,19.3-35,13.3c-11-4.9-17.3-16.7-15.3-28.6c1.5,3.6,11,15.1,27.5,18.2
		C214.8,43.1,220,40.1,226,37.9z"/>
	<path class="st0" d="M201.8,54c-14.9,0-27-12.1-26.9-27c0-1.5,0.1-3,0.4-4.4c0.1-0.3,0.3-0.5,0.6-0.4c0.2,0,0.3,0.1,0.4,0.3
		c1.6,3.7,10.9,14.8,27.1,17.9c10.1,1.9,15.1,0,20.4-2.1c0.7-0.3,1.4-0.6,2.1-0.8c0.2-0.1,0.4,0,0.5,0.1c0.1,0.1,0.2,0.4,0.1,0.6
		c-3.8,8.6-11.9,14.6-21.3,15.7C204,53.9,202.9,54,201.8,54z M176,24.3c-0.2,2-0.2,3.9,0.1,5.9c1.8,14.2,14.7,24.4,28.9,22.6
		c8.6-1,16.1-6.3,20-14l-0.9,0.4c-5.2,2-10.6,4.2-20.9,2.2C188.3,38.5,179,28.9,176,24.3z"/>
	<path class="st2" d="M227.2,19.2c-4.8-4-11.7-8.7-18.9-10.1c-8-1.6-16.3-2.1-24.4-1.4c10.7-10,27.4-9.5,37.4,1.2
		C224,11.8,226,15.3,227.2,19.2L227.2,19.2z"/>
	<path class="st0" d="M227.2,19.7c-0.1,0-0.2,0-0.3-0.1c-4.6-3.8-11.5-8.6-18.7-10c-8-1.6-16.2-2.1-24.4-1.4c-0.2,0-0.4-0.1-0.5-0.3
		c-0.1-0.2,0-0.4,0.1-0.6c10.9-10.2,27.9-9.7,38.1,1.2c2.8,3,4.9,6.6,6.1,10.5c0.1,0.2,0,0.4-0.2,0.6
		C227.4,19.6,227.3,19.7,227.2,19.7z M190.9,6.9c5.8,0,11.7,0.6,17.4,1.7c6.7,1.3,13.2,5.4,17.8,9.1c-4.3-11.1-15.6-17.9-27.4-16.4
		c-5,0.6-9.7,2.6-13.5,5.9C187.1,6.9,188.9,6.9,190.9,6.9z"/>
	<path class="st2" d="M182,18.2c0.4-1,0.7-2.1,0.9-3.2c0.4-1.6,1.6-5.3,0.4-6.7c-0.8-1-1.9-0.5-2.7,0.3c-3.6,3.7-5.1,8.5-6.2,13.5
		c-0.3,1.2-0.7,4.5,0.9,5c2,0.6,4.2-3.2,4.9-4.5C180.9,21.1,181.5,19.7,182,18.2z"/>
	<path class="st0" d="M175.8,27.6c-0.2,0-0.4,0-0.6-0.1c-2.1-0.7-1.5-4.5-1.3-5.6c1-4.5,2.5-9.6,6.3-13.7c0.5-0.6,1.2-1,2-1
		c0.6,0,1.1,0.3,1.4,0.7c1.2,1.4,0.4,4.4-0.1,6.4c-0.1,0.3-0.1,0.5-0.2,0.8c-0.3,1.1-0.6,2.2-0.9,3.2c-0.5,1.5-1.1,3-1.9,4.4
		C179.9,24.3,178,27.6,175.8,27.6z M182.2,8.3c-0.5,0.1-0.9,0.3-1.2,0.7c-3.7,3.9-5.1,8.9-6.1,13.2c-0.4,1.9-0.4,4.1,0.6,4.4
		c1.2,0.4,3-1.9,4.2-4.3c0.7-1.4,1.3-2.8,1.8-4.2l0,0c0.4-1,0.7-2.1,0.9-3.1c0.1-0.2,0.1-0.5,0.2-0.8c0.4-1.6,1.1-4.5,0.3-5.5
		C182.8,8.4,182.5,8.3,182.2,8.3L182.2,8.3z"/>
	<path class="st1" d="M171.3,87.8c0,0-13.7,26.6-26.5,29.1c-12.8,2.4-19.5-6.7-15.3-12s11.8-5.4,11.8-5.4c0,0,1-0.1,1-1.7v-2.3
		c0,0-13.4,1.1-17,8.5c-3.7,7.7,3.5,17,14.9,17c22.3,0,35.2-32.1,35.2-32.1"/>
	<polygon class="st2" points="175.3,61.6 167.7,88.1 204.6,98.4 212.4,70.7 	"/>
	<path class="st0" d="M204.6,98.9h-0.1l-36.8-10.3c-0.1,0-0.2-0.1-0.3-0.2c-0.1-0.1-0.1-0.3-0.1-0.4l7.6-26.5
		c0.1-0.3,0.3-0.4,0.6-0.4l37.1,9c0.1,0,0.2,0.1,0.3,0.2c0.1,0.1,0.1,0.3,0.1,0.4l-7.8,27.6C205.1,98.8,204.8,98.9,204.6,98.9z
		 M168.4,87.8l35.8,10l7.5-26.7l-36.1-8.8L168.4,87.8z"/>
	<circle class="st1" cx="183.1" cy="75.2" r="6.5"/>
	<circle class="st1" cx="202.3" cy="78.4" r="3.2"/>
	<path class="st3" d="M200.5,92.2h-0.1l-17.4-4.7c-0.3-0.1-0.4-0.4-0.4-0.6c0.1-0.3,0.4-0.4,0.6-0.4l17.4,4.7c0.3,0,0.5,0.3,0.4,0.6
		S200.8,92.3,200.5,92.2L200.5,92.2z"/>
	<path class="st5" d="M222.6,106.2c0,0,2.5-0.8,2.4,1.2s-3.9,16.3-3.9,16.3h-4.9L222.6,106.2z"/>
	<path class="st5" d="M165.9,14.1c0,0,0.6-2.7,1.8-2.7c1.2,0,7.6,1.4,7.6,1.4l-1.2,3.6L165.9,14.1z"/>
	<path class="st2" d="M190.9,117.1c-0.1,0-0.1,0-0.2,0c-0.3-0.1-0.4-0.4-0.3-0.6c0,0,0,0,0,0l2.5-7.8c0.1-0.3,0.4-0.4,0.6-0.3
		c0,0,0,0,0,0c0.3,0.1,0.4,0.4,0.3,0.6l-2.5,7.8C191.3,116.9,191.1,117.1,190.9,117.1z"/>
	<path class="st2" d="M171,110.4c-0.1,0-0.1,0-0.2,0c-0.3-0.1-0.4-0.4-0.3-0.7l3-7.3c0.1-0.3,0.4-0.4,0.7-0.3
		c0.3,0.1,0.4,0.4,0.3,0.6c0,0,0,0,0,0l-3,7.3C171.3,110.3,171.2,110.4,171,110.4z"/>
	<circle class="st2" cx="54.5" cy="123.7" r="36.5"/>
	<path class="st3" d="M54.5,160.8c-20.5,0-37.1-16.5-37.1-37c0-16.3,10.6-30.7,26.3-35.5c19.6-6,40.3,5.1,46.2,24.6l0,0
		c6,19.6-5.1,40.3-24.6,46.2C61.8,160.2,58.1,160.8,54.5,160.8z M54.5,87.7c-19.9,0-36.1,16.1-36.1,36c0,19.9,16.1,36.1,36,36.1
		c3.6,0,7.1-0.5,10.5-1.6c19-5.8,29.8-25.9,24-44.9c0,0,0,0,0,0l0,0C84.3,98.1,70.3,87.7,54.5,87.7L54.5,87.7z"/>
	<path class="st3" d="M21.6,148.2c-12.1,0-19.8-2.8-21.3-8c-1.8-5.8,4.6-13.6,17.6-21.3c0.2-0.1,0.6-0.1,0.7,0.2
		c0.1,0.2,0.1,0.6-0.2,0.7C6.1,127.2-0.3,134.7,1.3,140s11.2,7.9,25.5,7.1c11.2-0.8,22.2-2.9,32.9-6.3c10.8-3.2,21.1-7.6,30.8-13.2
		c12.4-7.3,18.8-14.8,17.2-20.1c-1.6-5.3-11.2-7.9-25.5-7.1c-0.3,0-0.5-0.2-0.5-0.4c0,0,0,0,0,0c0-0.3,0.2-0.5,0.5-0.5c0,0,0,0,0,0
		c15.1-0.9,24.7,2,26.5,7.8S104,120.7,91,128.4c-9.8,5.6-20.2,10-31.1,13.2c-10.8,3.4-21.9,5.5-33.2,6.3
		C25,148.2,23.3,148.2,21.6,148.2z"/>
	<path class="st3" d="M29.6,104.2c-0.1,0-0.2,0-0.3-0.1c-0.2-0.2-0.3-0.5-0.1-0.7c1-1.3,2.3-2.5,3.6-3.4c0.2-0.2,0.5-0.1,0.7,0.1
		c0.2,0.2,0.1,0.5-0.1,0.7c0,0,0,0,0,0c-1.3,0.9-2.4,2-3.4,3.2C29.9,104.1,29.7,104.2,29.6,104.2z"/>
	<path class="st3" d="M29.6,112.3h-0.1c-0.3-0.1-0.4-0.3-0.4-0.6c0,0,0,0,0,0c0.4-1.4,1-2.8,1.9-3.9c0.2-0.2,0.5-0.3,0.7-0.1
		c0.2,0.2,0.3,0.5,0.1,0.7c-0.8,1.1-1.4,2.3-1.7,3.6C30.1,112.2,29.9,112.3,29.6,112.3z"/>
	<path class="st3" d="M23.9,116.6c-0.1,0-0.1,0-0.2,0c-0.3-0.1-0.4-0.4-0.3-0.6l0.9-2.7c0.1-0.3,0.4-0.4,0.6-0.3
		c0.3,0.1,0.4,0.4,0.3,0.6l0,0l-0.9,2.7C24.3,116.4,24.1,116.6,23.9,116.6z"/>
	<circle class="st2" cx="284.1" cy="183.1" r="27.2"/>
	<path class="st3" d="M284.1,210.8c-15.3,0-27.7-12.4-27.7-27.6c0-15.3,12.4-27.7,27.6-27.7c15.3,0,27.7,12.4,27.7,27.6
		c0,0,0,0,0,0.1C311.7,198.4,299.3,210.8,284.1,210.8z M284.1,156.5c-14.7,0-26.6,11.9-26.7,26.6c0,14.7,11.9,26.6,26.6,26.7
		c14.7,0,26.6-11.9,26.7-26.6C310.7,168.4,298.8,156.5,284.1,156.5z"/>
	<path class="st3" d="M306.3,183.3c-0.1,0-0.2,0-0.2-0.1c-0.2-0.1-0.3-0.4-0.2-0.7c0,0,0,0,0,0c0.6-1.1,0.7-2.4,0.3-3.6
		c-0.1-0.3,0.1-0.6,0.4-0.7c0.3-0.1,0.6,0.1,0.7,0.4c0.4,1.4,0.3,3-0.4,4.3C306.7,183.2,306.5,183.3,306.3,183.3z"/>
	<path class="st3" d="M306,190.4h-0.2c-0.3-0.1-0.4-0.4-0.3-0.6c0,0,0,0,0,0c0.3-1,0.5-2,0.6-3.1c0-0.3,0.2-0.5,0.5-0.5c0,0,0,0,0,0
		c0.3,0,0.5,0.2,0.5,0.5c0,0,0,0,0,0c-0.1,1.1-0.3,2.3-0.6,3.4C306.4,190.2,306.2,190.4,306,190.4z"/>
	<path class="st3" d="M300.5,193.2c-0.1,0-0.2,0-0.3-0.1c-0.2-0.1-0.3-0.5-0.2-0.7c0.6-1,1.1-2.1,1.5-3.2c0.1-0.3,0.4-0.4,0.6-0.3
		c0,0,0,0,0,0c0.3,0.1,0.4,0.4,0.3,0.6c-0.4,1.2-1,2.3-1.6,3.4C300.9,193.1,300.7,193.2,300.5,193.2z"/>
	<polygon class="st1" points="73.8,56.3 75.5,63.1 82.3,64.9 75.5,66.6 73.8,73.4 72,66.6 65.2,64.9 72,63.1 	"/>
	<polygon class="st1" points="244,200.6 245.4,206 250.8,207.4 245.4,208.7 244,214.1 242.6,208.7 237.2,207.4 242.6,206 	"/>
	<polygon class="st3" points="270.7,44.2 271.4,46.9 274.1,47.6 271.4,48.2 270.7,50.9 270,48.2 267.3,47.6 270,46.9 	"/>
	<polygon class="st5" points="44.6,182.6 45.3,185.3 48,186 45.3,186.7 44.6,189.4 44,186.7 41.2,186 44,185.3 	"/>
	<polygon class="st3" points="33.1,37.1 33.8,39.8 36.5,40.5 33.8,41.1 33.1,43.8 32.4,41.1 29.7,40.5 32.4,39.8 	"/>
	<polygon class="st3" points="101.6,44 102.4,47.2 105.5,47.9 102.4,48.7 101.6,51.9 100.8,48.7 97.6,47.9 100.8,47.2 	"/>
	<polygon class="st5" points="254.7,140.9 255.5,144.1 258.7,144.9 255.5,145.7 254.7,148.8 253.9,145.7 250.8,144.9 253.9,144.1 	
		"/>
	<circle class="st2" cx="82.3" cy="198.4" r="11.8"/>
	<path class="st3" d="M82.3,210.8c-6.8,0-12.3-5.5-12.3-12.3c0-6.8,5.5-12.3,12.3-12.3c6.8,0,12.3,5.5,12.3,12.3c0,0,0,0,0,0
		C94.7,205.3,89.2,210.8,82.3,210.8z M82.3,187.1c-6.3,0-11.3,5.1-11.3,11.3c0,6.3,5.1,11.3,11.3,11.3c6.3,0,11.3-5.1,11.3-11.3
		c0,0,0,0,0,0C93.6,192.2,88.6,187.2,82.3,187.1L82.3,187.1z"/>
</g>
</svg>
