<?xml version="1.0" encoding="utf-8"?>
<!-- Generator: Adobe Illustrator 25.0.0, SVG Export Plug-In . SVG Version: 6.00 Build 0)  -->
<svg version="1.1" id="Layer_1" xmlns="http://www.w3.org/2000/svg" xmlns:xlink="http://www.w3.org/1999/xlink" x="0px" y="0px"
	 viewBox="0 0 407.8 188.2" style="enable-background:new 0 0 407.8 188.2;" xml:space="preserve">
<style type="text/css">
	.st0{fill:#C9C9C9;}
	.st1{fill:#007BFF;}
	.st2{fill:#FFFFFF;}
	.st3{fill:#4571B7;}
	.st4{fill:#FFFFFF;stroke:#000000;stroke-miterlimit:10;}
</style>
<g>
	<path class="st0" d="M368.2,38.2c6.4,13.3,9.9,28.1,9.9,43.8c0,56-45.4,101.4-101.4,101.4c-11.6,0-22.7-1.9-33-5.5
		c12.4,5,25.9,7.8,40.1,7.8c58.9,0,106.7-47.8,106.7-106.7c0-14.5-2.9-28.2-8.1-40.8H368.2z"/>
</g>
<g>
	<polygon class="st1" points="382.9,34.8 406.3,33.1 332.7,0 	"/>
</g>
<g>
	<polygon class="st2" points="382.9,34.8 380.3,48.8 373.5,38.5 332.7,0 	"/>
</g>
<g>
	<polygon class="st3" points="380.3,48.8 367,42.2 373.5,38.5 	"/>
</g>
<g>
	<polygon class="st1" points="373.5,38.5 355,52.8 332.7,0 	"/>
</g>
<g>
	<path class="st1" d="M-1.4,141.6c0.1-0.7,0.1-1.2,0.1-1.3l41.5-88.6c2.2-4.7,6-8.3,11.3-11c5.3-2.6,11.5-4,18.4-4
		c3,0,5.9,0.4,8.9,1.2s5.8,1.9,8.5,3.2c2.6,1.4,4.9,3,6.9,4.8s3.4,3.8,4.4,5.7l44.5,95.9h-36.5L69.3,65.6l-26.6,58.9H77v23.1H3
		c-2.3,0-3.7-0.4-4.1-1.3s-0.6-2-0.6-3.3C-1.5,142.8-1.5,142.3-1.4,141.6"/>
</g>
<g>
	<path class="st4" d="M157.8,149.6v-23.1h73.6c1.7-0.1,3.3-0.7,4.8-1.8c1.5-1,2.2-2.8,2.2-5.3v-6.6c0-3.9-1.8-6.3-5.5-7.2h-48.7
		c-2.8,0-5.8-0.5-8.9-1.6c-3.1-1-6-2.4-8.6-4.2c-2.6-1.7-4.7-3.7-6.5-5.9c-1.7-2.2-2.6-4.5-2.6-6.8V57.1c0-2.3,0.9-4.6,2.6-6.8
		c1.7-2.2,3.9-4.2,6.5-5.9s5.4-3.1,8.6-4.2c3.1-1,6.1-1.6,8.9-1.6h88.4v23.1h-73.4c-1.8,0.1-3.5,0.7-5,1.8c-1.5,1-2.2,2.8-2.2,5.3
		v6.6c0,2.5,0.6,4.2,1.9,5.2s2.8,1.6,4.5,1.8h47.8c3,0,6,0.5,9.1,1.6c3.1,1,6,2.5,8.6,4.2c2.6,1.8,4.7,3.8,6.4,6
		c1.7,2.2,2.5,4.5,2.5,6.8v30c0,2.3-0.8,4.6-2.5,6.8s-3.8,4.2-6.4,5.9s-5.4,3.1-8.6,4.2c-3.1,1-6.2,1.6-9.1,1.6H157.8z"/>
</g>
<g>
	<path class="st4" d="M321.6,38.8v80.6c0,2.7,0.8,4.6,2.4,5.5c1.6,1,3.4,1.5,5.5,1.5h66.2v23.1h-81.9c-2.8,0-5.8-0.5-8.9-1.6
		c-3.1-1-6-2.4-8.6-4.2c-2.6-1.7-4.7-3.7-6.5-5.9c-1.7-2.2-2.6-4.5-2.6-6.8V38.8H321.6z"/>
</g>
</svg>
